<?xml version="1.0" standalone="no"?>
<!DOCTYPE svg PUBLIC "-//W3C//DTD SVG 20010904//EN"
 "http://www.w3.org/TR/2001/REC-SVG-20010904/DTD/svg10.dtd">
<svg version="1.0" xmlns="http://www.w3.org/2000/svg"
 width="179.000000pt" height="179.000000pt" viewBox="0 0 179.000000 179.000000"
 preserveAspectRatio="xMidYMid meet">
<metadata>
Created by potrace 1.11, written by Peter Selinger 2001-2013
</metadata>
<g transform="translate(0.000000,179.000000) scale(0.100000,-0.100000)"
fill="#000000" stroke="none">
<path d="M0 900 l0 -550 895 0 895 0 0 550 0 550 -895 0 -895 0 0 -550z m1705
429 c3 -4 2 -46 -2 -95 l-8 -89 -197 -3 c-225 -3 -203 9 -192 -101 l7 -61 134
0 135 0 -7 -92 c-4 -51 -9 -96 -12 -100 -2 -5 -62 -8 -132 -8 l-128 0 5 -160
5 -160 -100 0 -100 0 -6 218 c-4 119 -5 235 -2 257 2 22 -1 90 -6 150 -6 67
-7 135 -1 173 l9 62 -39 0 c-21 0 -38 4 -38 10 0 10 664 9 675 -1z m-1074 -23
c85 -30 128 -63 201 -154 64 -81 91 -151 90 -239 0 -59 -26 -172 -49 -217 -14
-28 -14 -29 28 -72 l43 -44 -69 -70 -70 -70 -44 44 -43 44 -54 -25 c-72 -33
-198 -42 -274 -20 -93 27 -221 133 -237 195 -3 15 -9 29 -13 32 -3 3 -16 27
-29 54 -19 42 -22 61 -18 135 4 87 11 129 27 166 5 11 14 38 21 60 14 49 48
87 119 132 118 77 246 93 371 49z"/>
<path d="M395 1113 c-106 -55 -162 -186 -126 -295 16 -47 97 -123 147 -137 46
-13 131 -14 138 -3 3 5 -19 30 -49 56 -30 26 -55 53 -55 60 0 7 12 23 28 36
15 13 46 42 70 64 l43 39 54 -53 c30 -30 58 -50 62 -46 5 4 8 35 8 69 0 129
-104 228 -238 227 -29 -1 -65 -8 -82 -17z"/>
</g>
</svg>
